<?xml version="1.0" encoding="utf-8"?>
<!-- Generator: Adobe Illustrator 22.0.0, SVG Export Plug-In . SVG Version: 6.00 Build 0)  -->
<svg version="1.1" id="Layer_1" xmlns="http://www.w3.org/2000/svg" xmlns:xlink="http://www.w3.org/1999/xlink" x="0px" y="0px"
	 viewBox="0 0 325.2 205.5" style="enable-background:new 0 0 325.2 205.5;" xml:space="preserve">
<style type="text/css">
	.st0{fill:none;stroke:#EF7C00;stroke-width:2.649;stroke-linecap:round;stroke-linejoin:round;}
	.st1{fill:#EF7C00;}
	.st2{fill:#747170;}
</style>
<g>
	<line class="st0" x1="1.4" y1="156.1" x2="323.7" y2="156.1"/>
	<path class="st1" d="M267.6,43.4c0,5.7-4.6,10.3-10.3,10.3S247,49.1,247,43.4s4.6-10.3,10.3-10.3C263,33.1,267.6,37.7,267.6,43.4"
		/>
	<path class="st2" d="M121.5,20h-14.6V9.8h14.6V20z M117.2,8.3H111v-8.7h6.2V8.3z M125.9,142.8H104v-5.6c-3.3,4.6-8.4,6.8-15.2,6.8
		c-6.7,0-11.9-1.8-15.7-5.3c-3.8-3.5-5.7-10.2-5.7-20.1V82.2c0-9.5,1.5-16.2,4.6-20.3c3.1-4.1,8.3-6.1,15.6-6.1
		c6.4,0,11.5,1.7,15.3,5.1V21.4h22.5v114.1C125.4,137.5,125.6,139.9,125.9,142.8z M102.9,119.5V81.3c0-5-2.1-7.5-6.2-7.5
		c-4.3,0-6.4,2.5-6.4,7.5v38.2c0,5,2.1,7.5,6.4,7.5C100.9,127,102.9,124.5,102.9,119.5z M238.2,118.2c0,9-2.3,15.6-6.9,19.6
		c-4.6,4.1-12,6.1-22.1,6.1c-10.3,0-17.7-2-22.3-6.1c-4.6-4.1-6.9-10.6-6.9-19.6V80.8c0-9.1,2.3-15.6,6.9-19.7S199,55,209.2,55
		c10.2,0,17.5,2,22.1,6.1s6.9,10.7,6.9,19.7V118.2z M215.3,118.3V80.8c0-5.1-2-7.6-6.1-7.6c-4.3,0-6.4,2.5-6.4,7.6v37.5
		c0,5,2.1,7.4,6.4,7.4C213.3,125.7,215.3,123.3,215.3,118.3z M176.9,73.5h-3.2c-11.2,0-16.9,5.4-16.9,16.3v53h-23.2V56.7h22v6.8
		c4.4-5.6,9.8-8.4,16.1-8.4c1.5,0,3.2,0.1,5.3,0.4v18H176.9z M60.6,142.8H38.5l-0.2-5.4c-2.4,4.4-7.6,6.7-15.5,6.7
		c-14.2,0-21.3-6.3-21.3-18.9v-9.4c0-5.6,1.1-10,3.3-13.1c2.2-3.1,5.9-5.6,11.2-7.3l20.9-6.8v-7.8c0-4.9-2.1-7.3-6.2-7.3
		c-4,0-6,2.4-6,7.3V86H3.3v-5.4c0-8.8,2.3-15.3,6.8-19.3s11.7-6,21.6-6c9.8,0,17,2,21.5,6S60,71.8,60,80.6v54.9
		C59.8,137.8,60.1,140.2,60.6,142.8z M36.8,120.2v-14.6l-6.8,2.2c-3.6,1.2-5.4,4.1-5.4,8.9v4.7c0,4.6,1.9,6.9,5.8,6.9
		C34.7,128.4,36.8,125.7,36.8,120.2z M268.9,142.8h-23.2V56.7h23.2V142.8z M323.7,74.9h-13.1v67.9h-23.2V74.9h-13V56.7h13V33.1h23.2
		v23.6h13.1V74.9z"/>
	<path class="st2" d="M273.3,193.9c0.1,0.3,0.1,0.6-0.2,1c-0.2,0.3-0.5,0.5-1,0.6c-2.1,0.6-3.2-1.6-3.7-3.2
		c-0.4-1.3-0.3-2.6-0.4-3.9c-0.1-0.9-0.4-3.1-1.6-3.3c-0.3,0-0.6,0.1-0.9,0.5c-1.3,1.6-1.3,4.2-3.2,5.4c-0.6,0.4-1.2,0.6-1.6,0.5
		c-0.4-0.1-0.8-0.3-1-0.7c-0.8-1-0.7-2.2-0.7-3.4c-0.1-1.9-0.4-3.8-1.3-5.4c-0.4-0.8-0.8-1.9-0.3-2.7c0.5-1,1.9-1.6,2.9-1
		c0.3,0.2,0.5,0.5,0.6,0.9s0.2,1,0.3,1.6s0.1,1.3,0.2,1.9c0.1,0.7,0.2,1.3,0.3,2c0.4,1.6,1.6,1,2.4,0c0.7-0.9,1.1-2,1.4-3
		c0.5-1.5,1.5-1.7,2.7-0.8c0.3,0.2,0.5,0.5,0.7,0.7c0.3,0.5,0.5,1.1,0.8,1.8c0.2,0.7,0.4,1.5,0.5,2.3s0.3,1.6,0.4,2.4
		c0.2,1.3,0.2,3.7,1.3,4.6C272.4,193.1,273.1,193.4,273.3,193.9 M254.9,172.5l-0.1,0.7l-0.5,0.6l-0.7,0.3c-1.2,0.2-2.2,0.1-3-0.4
		s-1.4-1.1-1.9-1.9c-0.2-0.4-0.2-0.8,0-1.1c0.3-0.4,0.8-0.5,1.7-0.4c0.8,0.1,1.6,0.3,2.2,0.5s1.2,0.6,1.8,1L254.9,172.5z
		 M256.4,192.8c-0.2,0.2-0.6,0.4-1,0.5c-2.8,0.7-4.5-2.5-4.6-4.9c-0.1-2.9-0.1-5.9-0.1-8.8c0-1.4,1.4-1,2.2-0.6
		c1.4,0.8,1.1,2.4,0.8,3.8c-0.1,0.7-0.2,1.3-0.3,2c-0.2,2.8,1,4.9,2.8,7C256.6,192.3,256.7,192.6,256.4,192.8z M203.4,193.5
		c-1.6,2.9-3.3-1.8-3.8-3.1c-0.5-1.4-1.5-8-3.9-7.1c-1.3,0.4-2.3,3.1-3,4.2c-1,1.6-2.2,5.2-4,5.8c-3,0.9-2.7-4.8-2.7-6.4
		c-0.1-5.9-0.9-11.7-0.6-17.6c0-0.4,0.2-0.7,0.7-0.8c0.4-0.1,0.9-0.1,1.3,0.1s0.8,0.4,1.2,0.7c0.3,0.3,0.4,0.7,0.3,1.2
		c-0.1,0.3-0.2,0.8-0.3,1.4c-0.5,4.6-0.3,9.3,0.1,13.9c0.1,0.6,0.2,1.1,0.5,1.4c0.8,1,2.9-2.8,3.2-3.4c0.9-1.5,4.3-7.7,6.1-4.1
		c0.3,0.6,0.6,1.3,0.9,2.2c0.3,0.9,0.6,2,1,3.1s0.8,2.3,1.2,3.5c0.5,1.2,1,2.4,1.6,3.5C203.6,192.6,203.6,193.1,203.4,193.5z
		 M289.5,190.7c0,2.7-0.1,5.3-1.1,7.9c-0.5,1.3-1.2,2.5-2.2,3.7c-2.8,3.5-7.4,4.2-10.3,0.5c-0.8-1.1-1.6-2.2-1.9-3.6
		c-0.1-0.5-0.2-1-0.2-1.4s0.2-0.8,0.4-1s0.6-0.3,1-0.3c0.5,0.1,0.7,0.3,0.8,0.9c0.1,0.5,0.1,1.1,0.2,1.8c0.2,2.1,1.7,3.2,3.7,3.3
		c2.3,0.1,4.3-1.4,5.5-3.3c1.2-1.8,1.7-3.9,1.8-6.1c0.1-1.2,1.1-6.9-0.8-7.1c-0.8-0.1-1.2,0.9-1.6,1.4c-0.9,1.3-2,2.5-3.4,3.3
		c-2.4,1.3-5.4-0.9-5.7-3.3c-0.6-4.1,3.9-7.4,7.3-8.7c1-0.4,2.6-0.6,3.7-0.4c2.2,0.5,3,3.5,2.9,5.4
		C289.3,186.1,289.5,188.4,289.5,190.7z M284,181.5c-1.9,0.4-4,1.5-5,3.1c-0.9,1.5-0.8,4.6,1.7,3.5c1.3-0.6,2.3-1.8,3.1-2.9
		c0.5-0.8,1.9-2.7,0.9-3.6L284,181.5z M244.8,191.8c-0.8,0-1.6-0.1-2.3-0.2c-0.7-0.1-1.5-0.3-2.2-0.5c-0.8-0.2-1.5-0.4-2.3-0.5h-0.5
		l-0.5,0.2l-0.3,0.4l0.1,0.7c0.2,0.5,0.4,0.9,0.5,1.3c0.2,0.3,0.4,0.7,0.7,1.2c0.2,0.4,0.2,0.6-0.1,0.7c-0.3,0.1-0.6,0.2-1,0.2
		s-0.8-0.1-1.3-0.3c-0.4-0.2-0.7-0.4-0.8-0.6c-0.3-0.8-0.6-1.6-0.9-2.3c-0.3-0.7-0.5-1.4-0.7-2.1s-0.3-1.4-0.5-2.1
		c-0.1-0.7-0.2-1.5-0.3-2.4c-0.1-1.6-0.2-3.1-0.3-4.6c-0.1-1.5-0.2-3-0.3-4.4c-0.1-1.4-0.4-2.6-0.7-3.8c-0.3-1.2-0.9-2.1-1.6-2.9
		c-0.2-0.3-0.3-0.6-0.3-1s0.2-0.8,0.4-1.1c0.2-0.3,0.6-0.6,1-0.7s0.8-0.1,1.3,0.2c0.7,0.4,1.2,1,1.6,1.6c0.3,0.6,0.5,1.3,0.6,2
		s0.1,1.5,0.2,2.4c0,0.8,0.1,1.7,0.2,2.5c0.1,0.7,0.2,1.3,0.2,1.8s0.1,1.1,0.1,1.6s0,1.1,0.1,1.6c0,0.5,0,1.2,0.1,1.8
		c0.2,2.4,3-0.7,3.6-1.2c0.6-0.6,1.2-1.1,1.8-1.6c0.6-0.5,1.1-0.8,1.7-1.1c0.6-0.3,1.1-0.4,1.5-0.4c0.6,0,1,0.2,1.2,0.7
		c0.2,0.4,0.3,0.9,0.3,1.3c0,0.5-0.2,0.9-0.4,1.2c-0.3,0.3-0.6,0.5-1,0.4s-0.7-0.1-0.9-0.1c-0.2,0-0.6,0.2-1,0.6
		c-0.8,0.6-1.4,1.1-1.9,1.6s-1,0.9-1.6,1.5l-0.6,0.6l-0.1,0.3l0.3,0.2l0.6,0.3c0.8,0.4,1.5,0.8,2.4,1.1c0.8,0.3,1.6,0.6,2.4,0.8
		c0.8,0.2,1.5,0.4,2.2,0.4c0.7,0.1,1.2,0.1,1.6,0.1s0.7,0.1,0.9,0.3l0.3,0.8l-0.2,0.8l-0.6,0.5C246.5,191.7,245.6,191.8,244.8,191.8
		z M228.8,193.9c0.1,0.3,0.1,0.6-0.2,1c-0.2,0.3-0.5,0.5-1,0.6c-2.1,0.6-3.2-1.6-3.7-3.2c-0.4-1.3-0.3-2.6-0.4-3.9
		c-0.1-0.9-0.4-3.1-1.6-3.3c-0.3,0-0.6,0.1-0.9,0.5c-1.3,1.6-1.3,4.2-3.2,5.4c-0.6,0.4-1.2,0.6-1.6,0.5s-0.8-0.3-1.1-0.7
		c-0.8-1-0.7-2.2-0.7-3.4c-0.1-1.9-0.4-3.8-1.3-5.4c-0.4-0.8-0.8-1.9-0.3-2.7c0.5-1,1.9-1.6,2.9-1c0.3,0.2,0.5,0.5,0.6,0.9
		s0.2,1,0.3,1.6c0.1,0.6,0.1,1.3,0.2,1.9c0.1,0.7,0.2,1.3,0.3,2c0.4,1.6,1.6,1,2.4,0c0.7-0.9,1.1-2,1.4-3c0.5-1.5,1.5-1.7,2.7-0.8
		c0.3,0.2,0.5,0.5,0.7,0.7c0.3,0.5,0.5,1.1,0.8,1.8c0.2,0.7,0.4,1.5,0.5,2.3c0.2,0.8,0.3,1.6,0.4,2.4c0.2,1.3,0.2,3.7,1.3,4.6
		C227.8,193.1,228.5,193.4,228.8,193.9z M210.4,172.5l-0.1,0.7l-0.5,0.6l-0.7,0.3c-1.2,0.2-2.2,0.1-3-0.4s-1.4-1.1-1.9-1.9
		c-0.2-0.4-0.2-0.8,0-1.1c0.3-0.4,0.8-0.5,1.7-0.4c0.8,0.1,1.6,0.3,2.2,0.5s1.2,0.6,1.8,1L210.4,172.5z M211.9,192.8
		c-0.2,0.2-0.6,0.4-1,0.5c-2.8,0.7-4.5-2.5-4.6-4.9c-0.2-2.9-0.1-5.9-0.1-8.8c0-1.4,1.4-1,2.2-0.6c1.4,0.8,1.1,2.4,0.8,3.8
		c-0.1,0.7-0.2,1.3-0.3,2c-0.2,2.8,1,4.9,2.8,7C212,192.3,212.1,192.6,211.9,192.8z M181.9,175.4c-0.8,0.2-1.7,0.4-2.5,0.5
		s-1.6,0.3-2.5,0.4c-0.8,0.1-1.7,0.2-2.6,0.4c-0.4,0.1-0.8,0.3-1.1,0.6c-0.3,0.3-0.4,0.7-0.3,1.1c0.1,1,0.2,2,0.3,3
		c0.1,1,0.2,2,0.3,3c0.1,1,0.2,2.1,0.4,3.1c0.2,1.1,0.4,2.2,0.6,3.3l0.4,0.5l0.6,0.3l0.4,0.4c0.1,0.2,0.1,0.5,0,0.8l-0.3,1l-0.6,0.7
		c-0.3,0.2-0.5,0.2-0.8,0.2s-0.6-0.2-1-0.6c-0.6-0.6-1-1.2-1.2-1.8c-0.2-0.6-0.4-1.3-0.5-2.2c-0.1-1-0.3-1.9-0.4-2.8
		s-0.2-1.7-0.3-2.6c-0.1-0.8-0.1-1.7-0.2-2.6s-0.1-1.8-0.1-2.8c0-0.5-0.2-0.9-0.6-1.3s-0.8-0.5-1.3-0.5c-0.7,0.1-1.4,0.2-2,0.3
		c-0.6,0.1-1.3,0.3-1.8,0.4c-0.6,0.1-1.2,0.3-1.8,0.5c-0.6,0.2-1.3,0.4-1.9,0.5c-0.6,0.2-1.1,0.1-1.7-0.3c-0.6-0.3-1.1-0.7-1.4-1.2
		c-0.4-0.5-0.5-0.9-0.5-1.4s0.3-0.7,0.9-0.8c1.1-0.1,2.2-0.2,3.2-0.2c1-0.1,2-0.2,3.1-0.3c1-0.1,2.1-0.2,3.1-0.4
		c1.1-0.1,2.3-0.3,3.5-0.5s2.3-0.3,3.3-0.4s2-0.3,3-0.4c1-0.2,1.9-0.4,2.8-0.6s1.8-0.5,2.7-0.8l0.8,0.1l0.7,0.7
		c0.2,0.3,0.3,0.6,0.4,0.9c0,0.3-0.1,0.5-0.3,0.6C183.6,174.9,182.7,175.2,181.9,175.4z M139.8,191.4v0.5l-0.4,0.4l-0.6,0.3
		c-0.5,0.2-1.1,0.3-1.6,0.2c-0.5-0.1-1-0.3-1.4-0.7c-0.7-0.7-2.9-7.8-4.7-5.1c-0.5,0.7-0.9,1.4-1.3,2c-1.9,2.6-5.5,5.4-9,5
		c-1.1-0.1-1.9-0.5-2.5-1c-4.3-3.9,5.3-9.2,7.8-10.7c1.2-0.7,2.4-1.5,3.7-2.1l0.8-0.5l0.3-0.7c-0.1-1.2-0.2-2.3-0.3-3.4
		c-0.2-1.1-0.3-2.3-0.6-3.6l0.1-0.6l0.5-0.4l0.7-0.1l0.8,0.4c3.1,2.5,2.6,6.8,2.9,10.3c0.1,0.9,0.2,1.9,0.4,2.9
		c0.2,1,0.4,1.9,0.8,2.7c0.3,0.9,0.7,1.6,1.2,2.3c0.5,0.7,1.1,1.1,1.8,1.4C139.5,191.1,139.7,191.2,139.8,191.4z M130.9,183.7
		l-0.2-0.5l-0.5-0.2l-0.6,0.1c-0.6,0.4-1.4,0.8-2.1,1.2c-0.8,0.4-1.5,0.9-2.3,1.4s-1.6,1.1-2.3,1.7c-0.8,0.6-1.5,1.3-2,2
		c-0.2,0.2-0.3,0.5-0.3,0.8s0.1,0.6,0.3,0.8c0.2,0.2,0.5,0.4,0.9,0.4c0.4,0.1,0.9,0,1.5-0.3c0.9-0.3,1.7-0.8,2.4-1.4
		c0.7-0.5,1.3-1.1,1.9-1.8c0.6-0.6,1.1-1.3,1.6-1.9s1-1.3,1.5-1.9L130.9,183.7z M116.2,192.1v0.8l-0.4,0.9l-0.6,0.7l-0.7,0.4
		l-0.7-0.2c-0.6-0.5-1.1-1-1.6-1.6c-0.4-0.5-0.8-1.1-1.1-1.7c-0.3-0.6-0.6-1.2-0.8-1.8c-0.2-0.7-0.4-1.4-0.6-2.2
		c-0.1-0.5-0.3-0.8-0.5-1l-0.6-0.3l-0.7,0.2c-1.3,0.7-2.3,2.3-3.4,3.2c-1.8,1.6-4.3,3.8-6.8,4c-0.7,0.1-1.4,0-2-0.3
		c-3.2-1.3-2.8-5.1-1.1-7.3c2.1-2.7,5.2-4.4,8.3-5.9c0.8-0.4,1.5-0.6,2.3-0.7s1.4,0.1,2.1,0.6c0.4,0.4,0.8,0.6,1.1,0.7
		c0.3,0.1,0.7-0.2,1.1-0.8l0.7-0.4l0.8,0.1l0.7,0.5l0.5,0.7c0.2,0.5,0.4,1.1,0.4,1.7c0.1,0.7,0.1,1.4,0.2,2.1c0,0.8,0.1,1.5,0.1,2.3
		c0.1,0.8,0.2,1.4,0.3,2.1c0.2,0.6,0.4,1.2,0.8,1.7s0.9,0.8,1.5,1L116.2,192.1z M105.1,186c0.6-0.7,1.2-1.7,0.3-2.7
		c-0.3-0.3-1.5-0.4-2-0.1c-0.7,0.4-1.3,0.7-1.9,1.1c-0.6,0.3-1.1,0.7-1.6,1.1s-1,0.8-1.4,1.3c-0.5,0.5-0.9,1-1.5,1.6l-0.3,0.7
		l0.1,0.7l0.5,0.6c0.3,0.2,0.6,0.2,1,0.2c0.5,0,1-0.2,1.4-0.5C101,189.2,103.4,187.8,105.1,186z M89.5,195
		c-4.9,1.2-12.9,0.5-15.3-4.8c-0.4-0.8-0.4-1.7-0.2-2.8c0.2-1,0.5-1.8,0.8-2.5c0.4-0.7,0.8-1.4,1.3-2s1.1-1.1,1.7-1.6s1.4-1,2.1-1.5
		c0.8-0.5,1.6-0.9,2.4-1.3c2.4-1,5.8-1.5,7.9,0.4c3.5,3.2-1.7,6.1-4.1,7.3c-1.6,0.8-7,3.4-8.4,1.1l-0.4-0.3
		c-0.2-0.1-0.3,0.1-0.4,0.6c-0.1,0.7,0,1.4,0.4,1.9c2.2,3.5,7.9,3.7,11.5,3.2c0.7-0.1,1.4-0.2,2.2-0.3l0.7,0.1L92,193v0.6l-0.3,0.4
		C91.3,194.5,90.5,194.8,89.5,195z M88.3,181.8l-0.1-0.7l-0.5-0.5l-0.6-0.2c-0.8,0.1-1.6,0.2-2.5,0.5c-0.9,0.2-1.7,0.5-2.5,0.9
		s-1.6,0.8-2.4,1.3s-1.4,1-1.9,1.6l-0.3,0.5l-0.1,0.4l0.2,0.2l0.6-0.1c0.5-0.2,1.2-0.4,2-0.5s1.6-0.3,2.4-0.5
		c0.9-0.2,1.7-0.5,2.6-0.8s1.7-0.8,2.5-1.4L88.3,181.8z M72.6,193.5c-1.6,2.9-3.3-1.8-3.8-3.1c-0.5-1.4-1.5-8-3.9-7.1
		c-1.3,0.4-2.3,3.1-3,4.2c-1,1.6-2.2,5.2-4,5.8c-3,0.9-2.7-4.8-2.7-6.4c-0.1-5.9-0.9-11.7-0.6-17.6c0-0.4,0.2-0.7,0.7-0.8
		c0.4-0.1,0.9-0.1,1.3,0.1s0.8,0.4,1.2,0.7c0.3,0.3,0.4,0.7,0.3,1.2c-0.1,0.3-0.2,0.8-0.3,1.4c-0.5,4.6-0.3,9.3,0.1,13.9
		c0.1,0.6,0.2,1.1,0.5,1.4c0.8,1,2.9-2.8,3.2-3.4c0.9-1.5,4.3-7.7,6.1-4.1c0.3,0.6,0.6,1.3,0.9,2.2c0.3,0.9,0.6,2,1,3.1
		s0.8,2.3,1.2,3.5c0.5,1.2,1,2.4,1.6,3.5C72.8,192.6,72.9,193.1,72.6,193.5z M53.2,197c-0.3,0.3-0.6,0.5-1,0.5s-0.8-0.1-1.2-0.3
		c-0.4-0.2-0.6-0.6-0.7-1.1c-0.1-0.7-0.2-1.3-0.3-1.9c-0.1-0.5-0.1-1.1-0.1-1.6s-0.1-1.1-0.1-1.7c-0.1-0.6-0.2-1.2-0.3-2
		c-0.1-0.4-0.3-0.6-0.6-0.6h-1.3h-1.1h-1h-1.1c-0.7,0-1.3,0.1-1.9,0.5c-0.6,0.3-0.9,0.9-1.1,1.5c-0.2,0.7-0.3,1.3-0.3,1.9
		c-0.1,0.5-0.2,1-0.3,1.5c-0.1,0.5-0.3,1.1-0.5,1.6c-0.2,0.6-0.6,1.3-1.1,2.1c-0.3,0.6-0.8,1-1.3,1.2s-0.9,0.2-1.3,0.1
		s-0.7-0.5-0.9-0.9c-0.2-0.5-0.2-1,0-1.7c0.2-0.8,0.4-1.4,0.6-1.9c0.2-0.4,0.3-0.8,0.5-1.2c0.2-0.3,0.3-0.7,0.5-1.1s0.4-0.9,0.6-1.6
		c0.1-0.4,0.1-0.7-0.2-1c-0.2-0.3-0.5-0.6-0.8-0.9c-0.2-0.2-0.3-0.5-0.3-0.8s0.1-0.6,0.2-0.9l0.6-0.7l0.9-0.4c0.4-0.1,0.8-0.1,1-0.2
		s0.5-0.4,0.8-1.1c0.6-1.5,1.1-2.7,1.5-3.8c0.3-1,0.6-2,0.9-2.9s0.6-1.9,0.9-2.8c0.3-1,0.8-2.2,1.4-3.5c0.2-0.6,0.6-1,0.9-1.2
		c0.4-0.2,0.8-0.3,1.1-0.3c0.4,0.1,0.7,0.2,1.1,0.5c0.3,0.3,0.6,0.7,0.8,1.3c0.7,1.9,1.2,3.7,1.5,5.5s0.6,3.7,0.9,5.6
		c0.2,1.9,0.5,4,0.8,6.1s0.8,4.4,1.4,6.9C53.5,196.2,53.4,196.7,53.2,197z M48.6,182.4c-0.1-0.6-0.1-1.1-0.2-1.7s-0.1-1.1-0.2-1.7
		s-0.1-1.2-0.2-1.9c-0.1-0.3-0.2-0.6-0.4-0.8l-0.7-0.3l-0.8,0.2c-0.2,0.2-0.4,0.4-0.5,0.8c-0.2,0.7-0.4,1.3-0.5,1.8
		c-0.2,0.5-0.3,1-0.5,1.5s-0.3,1-0.5,1.6s-0.4,1.2-0.6,1.9l0.1,0.6l0.5,0.4c0.7,0.1,1.3,0.2,2,0.2s1.4,0,2.1,0l0.5-0.2l0.2-0.5
		C48.8,183.6,48.7,183,48.6,182.4z"/>
</g>
</svg>
