<svg xmlns="http://www.w3.org/2000/svg" xmlns:xlink="http://www.w3.org/1999/xlink" viewBox="0 0 169.19 115.1"><defs><style>.cls-1{fill:none;}.cls-2{clip-path:url(#clip-path);}.cls-3{fill:#fff;}.cls-4{fill:#f7b519;}</style><clipPath id="clip-path" transform="translate(-13.64 -11.37)"><rect class="cls-1" width="202.37" height="143.09"/></clipPath></defs><g id="Layer_2" data-name="Layer 2"><g id="Layer_1-2" data-name="Layer 1"><g class="cls-2"><polygon class="cls-3" points="80.56 114.94 79.18 114.94 79.18 108.9 75.16 108.9 75.16 114.94 73.77 114.94 73.77 101.86 75.16 101.86 75.16 107.67 79.18 107.67 79.18 101.86 80.56 101.86 80.56 114.94"/><g class="cls-2"><path class="cls-3" d="M96.23,122.51v-5.46a4.16,4.16,0,0,1,1-3,3.89,3.89,0,0,1,5.16,0,4.16,4.16,0,0,1,1,3v5.46a4.06,4.06,0,0,1-1,3,3.82,3.82,0,0,1-5.15,0,4.1,4.1,0,0,1-1-3m5.7,0v-5.35a3.46,3.46,0,0,0-.55-2.15,1.86,1.86,0,0,0-1.59-.71,1.94,1.94,0,0,0-1.64.7,3.54,3.54,0,0,0-.54,2.16v5.35c0,1.79.73,2.69,2.18,2.69a1.94,1.94,0,0,0,1.58-.68,3,3,0,0,0,.56-2" transform="translate(-13.64 -11.37)"/><polygon class="cls-3" points="100.77 114.94 99.39 114.94 99.39 104.9 96.69 111.91 95.78 111.91 93.09 104.95 93.09 114.94 91.71 114.94 91.71 101.86 93.09 101.86 96.26 109.94 99.39 101.86 100.77 101.86 100.77 114.94"/><polygon class="cls-3" points="104.32 107.67 108.14 107.67 108.14 108.92 104.32 108.92 104.32 113.71 108.77 113.71 108.77 114.94 102.95 114.94 102.95 101.86 108.77 101.86 108.77 103.1 104.32 103.1 104.32 107.67"/><path class="cls-3" d="M127.2,122.51v-5.46a4.16,4.16,0,0,1,1-3,3.89,3.89,0,0,1,5.16,0,4.16,4.16,0,0,1,1,3v5.46a4.06,4.06,0,0,1-1,3,3.82,3.82,0,0,1-5.15,0,4.1,4.1,0,0,1-1-3m5.71,0v-5.35a3.46,3.46,0,0,0-.55-2.15,1.88,1.88,0,0,0-1.59-.71,1.94,1.94,0,0,0-1.64.7,3.54,3.54,0,0,0-.54,2.16v5.35c0,1.79.73,2.69,2.18,2.69a1.94,1.94,0,0,0,1.58-.68,3.09,3.09,0,0,0,.56-2" transform="translate(-13.64 -11.37)"/><polygon class="cls-3" points="124.07 107.72 127.9 107.72 127.9 108.97 124.07 108.97 124.07 114.94 122.69 114.94 122.69 101.86 128.51 101.86 128.51 103.1 124.07 103.1 124.07 107.72"/><path class="cls-3" d="M153.73,117.05q0,3.74-3.36,3.73h-2v5.54H147V113.24h3.39a3.18,3.18,0,0,1,2.55,1,4.34,4.34,0,0,1,.81,2.86m-1.37,0a3.11,3.11,0,0,0-.5-2,1.91,1.91,0,0,0-1.56-.61h-1.94v5.08h1.94a2,2,0,0,0,1.56-.59,3,3,0,0,0,.5-1.91" transform="translate(-13.64 -11.37)"/><path class="cls-3" d="M156.61,120.59v5.73h-1.39V113.24h3.46a3.14,3.14,0,0,1,2.51.91,4.17,4.17,0,0,1,.78,2.78c0,1.87-.64,3-1.93,3.45l2.31,5.94h-1.48l-2.16-5.73Zm2-1.21a1.73,1.73,0,0,0,1.47-.62,3,3,0,0,0,.46-1.83,3.16,3.16,0,0,0-.45-1.85,1.69,1.69,0,0,0-1.48-.61h-2v4.91Z" transform="translate(-13.64 -11.37)"/><rect class="cls-3" x="150.61" y="101.86" width="1.37" height="13.08"/><path class="cls-3" d="M171.3,113.24a3.41,3.41,0,0,1,2.56,1,4.08,4.08,0,0,1,1,3v5.16a4.06,4.06,0,0,1-1,3,3.38,3.38,0,0,1-2.56,1h-3.39V113.24Zm1.58,11.16a3.09,3.09,0,0,0,.56-2v-5a3.46,3.46,0,0,0-.55-2.15,1.88,1.88,0,0,0-1.59-.71h-2v10.62h2a1.92,1.92,0,0,0,1.58-.69" transform="translate(-13.64 -11.37)"/><polygon class="cls-3" points="164.58 107.67 168.41 107.67 168.41 108.92 164.58 108.92 164.58 113.71 169.04 113.71 169.04 114.94 163.22 114.94 163.22 101.86 169.04 101.86 169.04 103.1 164.58 103.1 164.58 107.67"/><path class="cls-3" d="M96.93,59.37V93.76c0,1.09-.27,1.63-1.36,2l.07.34h5.58c4.7-.07,6.2-3.4,6.2-7.69V67c0-4.16-1.5-7.56-6.2-7.63Zm4.29-3.88h0c7.63,0,12.8,3.2,12.8,11.51V88.38c0,7.9-5.38,11.78-12.8,11.78H87.47V98.25l2.79-1.9V59.23l-2.39-1.9V55.49Z" transform="translate(-13.64 -11.37)"/><path class="cls-3" d="M127.43,59.44V78.1h4.09c4.22,0,5.92-2.32,5.92-6.47V65.9c0-4.08-1.5-6.46-5.85-6.46Zm6.2,26.69h0c-1.23-3.47-2.38-4.36-6.13-4.36V96.34l2.79,1.91v1.91H118.17V98.25L121,96.34V59l-2.31-1.7V55.49h12.94c6.8,0,12.39,2.65,12.39,10.41v5.73c0,5.51-3,8.58-7.15,9.39a7,7,0,0,1,3.47,4.16l2.93,8.24c.68,1.77,1.84,4.22,3.88,3.74v2.52a12.29,12.29,0,0,1-4.7.82c-4,0-4.35-2.86-5.65-6.27Z" transform="translate(-13.64 -11.37)"/><path class="cls-3" d="M160.66,84.43h10l-5-21.38h-.07ZM157.73,97h0l2.32,1.15v2h-8.72v-2L153.64,97c3.14-13.21,6.67-28.6,9.94-41.74h6.54L180.4,96.75l2.25,1.36v2h-11.3v-1.7L173.66,97l-2.11-8.93H159.84Z" transform="translate(-13.64 -11.37)"/><rect class="cls-4" x="73.75" y="94.66" width="95.44" height="1.23"/><path class="cls-4" d="M84.21,11.37S37.56,32.64,28,58.81c-9.08,24.77,15.63,44.05,33.64,47.42,0,0-35.66-20.83-7.32-47.42,0,0,13.28-10.82,22.84-16.39,9.39-6.74,8.42-25.41,7.08-31.05" transform="translate(-13.64 -11.37)"/><path class="cls-4" d="M37.78,38.75S13.91,56.37,13.64,74.59,40.11,100.67,48.53,104c0,0-28.63-15.15-25.22-38.27,0,0-.08-11.61,14.47-26.93" transform="translate(-13.64 -11.37)"/><path class="cls-4" d="M81.76,41.81s-25,14.13-31.66,25.13C41,79.49,46.77,101.65,74.34,107.32c0,0-21.72-11.81-15.66-26.65,0,0,1.14-4.07,6.32-9.62,2.65-2.16,7.9-6.55,10.18-8.46l.18-.12c8.92-6.84,7.45-17.94,6.4-20.66" transform="translate(-13.64 -11.37)"/></g></g></g></g></svg>