<?xml version="1.0" encoding="utf-8"?>
<!-- Generator: Adobe Illustrator 26.0.1, SVG Export Plug-In . SVG Version: 6.00 Build 0)  -->
<svg version="1.1" id="Layer_1" xmlns="http://www.w3.org/2000/svg" xmlns:xlink="http://www.w3.org/1999/xlink" x="0px" y="0px"
	 viewBox="0 0 623 175" style="enable-background:new 0 0 623 175;" xml:space="preserve">
<style type="text/css">
	.st0{fill:#FFFFFF;}
	.st1{fill:#F26F21;}
	.st2{fill:#FFCA05;}
	.st3{fill:#FCB813;}
	.st4{fill:#FFDD00;}
	.st5{fill:#F9A51A;}
</style>
<g>
	<g>
		<path class="st0" d="M4.3,42.9h35.8c11.6,0,19.6,3,24.7,8.2c4.4,4.3,6.7,10.2,6.7,17.6v0.2c0,11.6-6.2,19.3-15.6,23.3L74,118.6
			H49.7L34.5,95.7h-0.2h-9v22.9h-21C4.3,118.6,4.3,42.9,4.3,42.9z M39.1,79.2c7.1,0,11.3-3.5,11.3-9V70c0-6-4.3-9-11.4-9H25.3v18.2
			H39.1z"/>
		<path class="st0" d="M111.3,42.3h20.2l32.2,76.3h-22.5l-5.5-13.5h-29.2l-5.4,13.5H79L111.3,42.3z M129.7,88.7l-8.4-21.5l-8.5,21.5
			H129.7z"/>
		<path class="st0" d="M175.4,42.9h29.2c27,0,42.7,15.6,42.7,37.4v0.2c0,21.9-15.9,38.1-43.2,38.1h-28.8V42.9H175.4z M205,100
			c12.5,0,20.9-6.9,20.9-19.2v-0.2c0-12.1-8.3-19.2-20.9-19.2h-8.6V100H205z"/>
		<path class="st0" d="M263,42.9h21.1v75.7H263V42.9z"/>
		<path class="st0" d="M328.4,42.3h20.2l32.3,76.3h-22.5l-5.5-13.5h-29.2l-5.4,13.5h-22.1L328.4,42.3z M346.8,88.7l-8.4-21.5
			l-8.5,21.5H346.8z"/>
		<path class="st0" d="M392.6,42.9h19.6l31.2,40v-40h20.8v75.7h-18.4l-32.4-41.5v41.5h-20.8L392.6,42.9L392.6,42.9z"/>
		<path class="st0" d="M527,42.9h60.9v17.9h-40.1v11.5h36.4v16.6h-36.4v12h40.7v17.9H527V42.9z"/>
	</g>
	<path class="st1" d="M484.6,48.1c0.5,2.9,3.4,14.9,19.1,12.4c1.8-4.5,4.1-8.8,7-12.6c1.8-13.1,6.9-34.4,22.2-41.8
		C511.5,12.7,493.9,28.1,484.6,48.1z"/>
	<path class="st2" d="M484.7,48.1c-4.6,10-7.3,21.2-7.3,32.9c0,7.8,1.1,15.3,3.2,22.3c0.5-18,13.2-31.7,21.7-38.9
		c0.4-1.3,0.9-2.6,1.4-3.9C489.2,63.2,485.3,50.8,484.7,48.1z"/>
	<path class="st1" d="M499.8,81c0-5.8,0.9-11.4,2.5-16.7c-8.3,6.4-21.7,19.2-21.8,38.8c0.2,0.7,0.4,1.4,0.7,2.1
		c2.7,2.4,13.4,10.5,23.9-0.4C501.7,97.6,499.8,89.5,499.8,81z"/>
	<path class="st3" d="M505,104.4c-10.6,10.7-21,3.2-23.7,0.9c0.1,0.2,0.1,0.4,0.2,0.7c13.7,19.1,35.2,23.7,48.2,24.4
		C518.8,124.7,510.1,115.5,505,104.4z"/>
	<path class="st4" d="M529.4,130.2c-29.5-1.7-44.4-19.4-48-24.3c7.9,23.4,26.6,41.9,50.1,49.5c11.8-2,14.1-13.7,12.3-19.9
		C538.8,134.4,533.9,132.6,529.4,130.2z"/>
	<path class="st1" d="M555.6,159.2c15.8,0,30.5-4.7,42.8-12.8c-21,10.9-40.7-1.8-50.4-10.2c-1.5-0.2-3-0.5-4.5-0.8
		c-0.5,14.8-9.4,19-12,19.9C539.1,157.8,547.2,159.2,555.6,159.2z"/>
	<path class="st5" d="M592.2,122.9c-9.8,8.6-22.7,13.9-36.8,13.9c-2.6,0-5.1-0.2-7.5-0.5c19.6,18.4,36.8,17.3,49.7,10.6
		c9.6-6.1,17.8-14.3,23.9-23.9C617.1,122.9,594.9,122.9,592.2,122.9z"/>
	<path class="st5" d="M532.7,6.2c-17,8.1-22.9,31.9-22.4,42.2c10.1-14.1,26.6-23.2,45.3-23.2c8.9,0,17.3,2.1,24.8,5.8
		c13.4-4.9,9.5-17,7.6-21.2c-9.9-4.5-20.8-7-32.4-7C547.6,2.8,540,4,532.7,6.2z"/>
	<path class="st2" d="M587.8,9.7c4.2,11.5-2.1,18.7-7.9,21c4.3,2.1,8.2,4.7,11.8,7.7h29.5C613.1,26,601.5,15.9,587.8,9.7z"/>
	<g>
		<path class="st0" d="M17.7,162l6.6,9.9H33l-7.5-11l0.8-0.4c1.9-0.8,3.5-2,4.6-3.5s1.7-3.5,1.7-5.8v-0.1c0-3.1-0.9-5.4-2.7-7.1l0,0
			l0,0c-2-2.1-5.3-3.3-10.2-3.3H4.9V172h7.6v-10h4.6H17.7z M12.5,147h6.7c1.6,0,3,0.3,4.1,1.1c1,0.8,1.6,2,1.6,3.5v0.1
			c0,1.4-0.5,2.6-1.6,3.4c-1,0.8-2.4,1.2-4.1,1.2h-6.7C12.5,156.3,12.5,147,12.5,147z"/>
		<polygon class="st0" points="118,171.9 118,165.7 100.4,165.7 100.4,159 116.2,159 116.2,153.3 100.4,153.3 100.4,146.8 
			117.8,146.8 117.8,140.6 92.9,140.6 92.9,171.9 		"/>
		<path class="st0" d="M200.2,166.1l2.4,5.9h8.1l-13.3-31.5h-7.8L176.3,172h7.9l2.3-5.9H200.2z M193.4,148.3l4.4,11.1l0.4,1h-9.6
			L193.4,148.3z"/>
		<polygon class="st0" points="293.5,171.9 293.5,165.5 277.6,165.5 277.6,140.6 270,140.6 270,171.9 		"/>
		<polygon class="st0" points="374,140.6 346.7,140.6 346.7,147.1 355.8,147.1 356.5,147.1 356.5,171.9 364.1,171.9 364.1,147.1 
			374,147.1 		"/>
		<polygon class="st0" points="454.4,140.6 447.1,153.3 439.9,140.6 431.3,140.6 443.1,160 443.2,160.2 443.2,171.9 450.9,171.9 
			450.9,160 462.7,140.6 		"/>
	</g>
</g>
</svg>
