<svg xmlns="http://www.w3.org/2000/svg" xmlns:xlink="http://www.w3.org/1999/xlink" id="Layer_1" x="0px" y="0px" viewBox="0 0 100 100" style="enable-background:new 0 0 100 100;" xml:space="preserve">
<g>
	<path d="M49.2,62.5c0.3,0.5,0.8,0.9,1.4,0.9c0,0,0,0,0,0c0.6,0,1.2-0.3,1.4-0.9c0.1-0.2,9.2-16.6,13-22.9c0.2-0.3,0.4-0.7,0.7-1   c1.7-2.6,4.2-6.4,4.2-12.9c0-9.6-8.8-17.7-19.2-17.7c-4.8,0-9.4,1.9-12.9,5.3c-3.5,3.4-5.4,8-5.4,12.8c0,4.9,2,10.6,5.4,15.6   C39.4,44.1,42,49,49.2,62.5z M50.7,11.4c8.5,0,15.9,6.8,15.9,14.4c0,5.5-2.1,8.7-3.6,11.1c-0.3,0.4-0.5,0.8-0.7,1.1   c-2.9,4.8-8.8,15.4-11.6,20.3C44.5,46.7,42,42.2,40.4,39.8c-3-4.4-4.8-9.4-4.8-13.7C35.6,18,42.4,11.4,50.7,11.4z"></path>
	<path d="M49.4,35.7v4.4c0,0.9,0.7,1.6,1.6,1.6c0.9,0,1.6-0.7,1.6-1.6v-4.4c3.6-0.7,6.6-3.5,7.3-7.2l0.3-1.6l-3.2-0.6l-0.3,1.6   c-0.5,2.6-2.8,4.6-5.5,4.7c-0.1,0-0.2,0-0.3,0c-0.1,0-0.2,0-0.3,0c-3.1-0.1-5.5-2.7-5.5-5.8c0-3.2,2.6-5.8,5.8-5.8   c1.8,0,3.5,0.8,4.6,2.3l1,1.3l2.6-2l-1-1.3c-1.7-2.3-4.4-3.6-7.3-3.6c-5,0-9.1,4.1-9.1,9.1C42,31.2,45.2,35,49.4,35.7z"></path>
	<path d="M95.8,90.5l-8.2-33.9v-0.3h-0.1L85.3,47c-0.2-0.7-0.8-1.3-1.6-1.3h-7.4c-0.2,0-0.3,0-0.5,0H64.2V49h9.5l-2.3,7.2H58.6v3.3   h11.7l-4.8,14.9c-0.1,0.4-0.1,0.8,0.1,1.2H30.3V59.6h13.5v-3.3H30.3V49h7.9v-3.3H18.5c-0.7,0-1.4,0.5-1.6,1.2L5.1,91   c-0.1,0.5,0,1,0.3,1.4c0.3,0.4,0.8,0.6,1.3,0.6c0,0,0,0,0,0l87.6-0.6c0.5,0,1-0.2,1.3-0.6C95.8,91.5,95.9,90.9,95.8,90.5z M77.2,49   h5.2l1.8,7.2h-9.3L77.2,49z M68.6,75.5l5.2-15.9h11.1l3.9,16.1H68.6C68.6,75.6,68.6,75.6,68.6,75.5z M27,75.7H12.6l4.3-16.1H27   V75.7z M19.7,49H27v7.2h-9.2L19.7,49z M53.2,89.5l-6.1-9.2l-2.7,1.8l4.9,7.4L8.8,89.8L11.7,79H27v7.6h3.3V79h59.3l2.5,10.2   L53.2,89.5z"></path>
</g>
</svg>